<?xml version="1.0" encoding="utf-8"?>
<!-- Generator: Adobe Illustrator 27.8.0, SVG Export Plug-In . SVG Version: 6.00 Build 0)  -->
<svg version="1.1" id="Layer_1" xmlns="http://www.w3.org/2000/svg" xmlns:xlink="http://www.w3.org/1999/xlink" x="0px" y="0px"
	 viewBox="0 0 100 70" style="enable-background:new 0 0 100 70;" xml:space="preserve">
<style type="text/css">
	.st0{fill-rule:evenodd;clip-rule:evenodd;fill:#E7E9EB;stroke:#A5A8BC;stroke-width:0.5;}
	.st1{fill-rule:evenodd;clip-rule:evenodd;fill:#FFFFFF;}
	.st2{fill-rule:evenodd;clip-rule:evenodd;fill:#8084A7;}
	.st3{fill:#FFFFFF;}
	.st4{font-family:'OpenSans-Regular';}
	.st5{font-size:11px;}
</style>
<g id="Page-Config">
	<g id="Page-layouts" transform="translate(-692.000000, -84.000000)">
		<g id="_x31_-col-" transform="translate(692.000000, 84.000000)">
			<rect id="bg" x="0.2" y="0.2" class="st0" width="99.5" height="69.5"/>
			<g id="white" transform="translate(3.000000, 3.000000)">
				<rect id="Rectangle" x="-1.4" y="-1.2" class="st1" width="97.2" height="67.8"/>
			</g>
			<g id="gray" transform="translate(6.000000, 6.000000)">
				
					<rect id="Rectangle_00000048470128713767530170000016397854710118338232_" x="18.2" y="20.1" class="st2" width="36.1" height="41.6"/>
			</g>
			<g id="labels" transform="translate(44.000000, 17.000000)">
				<text transform="matrix(1 0 0 1 -5.2595 32.5122)" class="st3 st4 st5">A</text>
			</g>
			<g id="gray_00000135675627074433267040000004403624650580039053_" transform="translate(6.000000, 6.000000)">
				
					<rect id="Rectangle_00000150074584607058394730000002150103200045640361_" x="55.5" y="20" class="st2" width="36.1" height="41.7"/>
			</g>
			<g id="labels_00000160904591701531414440000001358946740977214910_" transform="translate(44.000000, 17.000000)">
				<text transform="matrix(1 0 0 1 33.035 32.512)" class="st3 st4 st5">B</text>
			</g>
			<g id="gray_00000010993161726758851120000008709479156961012615_" transform="translate(6.000000, 6.000000)">
				
					<rect id="Rectangle_00000075865436187415292690000012233380151977296775_" x="-3.4" y="-2.4" class="st2" width="19.6" height="64.1"/>
			</g>
			<g id="gray_00000162315884397469186650000017032997286427837372_" transform="translate(6.000000, 6.000000)">
				
					<rect id="Rectangle_00000061433096406386262230000009476156058547242377_" x="18.2" y="-2.4" class="st2" width="73.5" height="19.6"/>
			</g>
			<g id="labels_00000057851704315965976160000000191611728870070956_" transform="translate(44.000000, 17.000000)">
				<text transform="matrix(1 0 0 1 -14.715 0.9061)" class="st3 st4 st5">Highlight</text>
				<g id="labels_00000053526692593055557070000010246218486279826818_" transform="translate(44.000000, 17.000000)">
					<text transform="matrix(6.123234e-17 -1 1 6.123234e-17 -72.0552 15.5117)" class="st3 st4 st5">Side</text>
				</g>
			</g>
		</g>
	</g>
</g>
</svg>
